<svg width="18" height="17" viewBox="0 0 18 17" fill="none" xmlns="http://www.w3.org/2000/svg">
<path d="M16.0083 0.000116526H1.89163C1.73294 -0.00208733 1.57538 0.0269894 1.42793 0.0856863C1.28048 0.144383 1.14605 0.23155 1.03229 0.34221C0.918536 0.452869 0.827694 0.584853 0.764953 0.730625C0.702211 0.876396 0.6688 1.0331 0.666626 1.19178V15.4751C0.6688 15.6338 0.702211 15.7905 0.764953 15.9363C0.827694 16.082 0.918536 16.214 1.03229 16.3247C1.14605 16.4353 1.28048 16.5225 1.42793 16.5812C1.57538 16.6399 1.73294 16.669 1.89163 16.6668H16.0083C16.167 16.669 16.3245 16.6399 16.472 16.5812C16.6194 16.5225 16.7539 16.4353 16.8676 16.3247C16.9814 16.214 17.0722 16.082 17.135 15.9363C17.1977 15.7905 17.2311 15.6338 17.2333 15.4751V1.19178C17.2311 1.0331 17.1977 0.876396 17.135 0.730625C17.0722 0.584853 16.9814 0.452869 16.8676 0.34221C16.7539 0.23155 16.6194 0.144383 16.472 0.0856863C16.3245 0.0269894 16.167 -0.00208733 16.0083 0.000116526ZM5.69163 13.9501H3.19163V6.45012H5.69163V13.9501ZM4.44163 5.40012C4.09684 5.40012 3.76618 5.26315 3.52239 5.01936C3.27859 4.77556 3.14163 4.4449 3.14163 4.10012C3.14163 3.75534 3.27859 3.42468 3.52239 3.18088C3.76618 2.93708 4.09684 2.80012 4.44163 2.80012C4.62471 2.77935 4.81011 2.7975 4.98569 2.85335C5.16127 2.90921 5.32307 3.00152 5.46051 3.12425C5.59794 3.24698 5.7079 3.39735 5.78318 3.56552C5.85847 3.73369 5.89739 3.91586 5.89739 4.10012C5.89739 4.28437 5.85847 4.46655 5.78318 4.63471C5.7079 4.80288 5.59794 4.95326 5.46051 5.07598C5.32307 5.19871 5.16127 5.29102 4.98569 5.34688C4.81011 5.40274 4.62471 5.42088 4.44163 5.40012ZM14.7083 13.9501H12.2083V9.92512C12.2083 8.91678 11.85 8.25845 10.9416 8.25845C10.6605 8.26051 10.3868 8.34868 10.1573 8.51109C9.92786 8.6735 9.7537 8.90235 9.65829 9.16678C9.59308 9.36265 9.56482 9.56893 9.57496 9.77512V13.9418H7.07496C7.07496 13.9418 7.07496 7.12512 7.07496 6.44178H9.57496V7.50012C9.80207 7.10604 10.1324 6.78138 10.5303 6.56112C10.9283 6.34085 11.3788 6.23333 11.8333 6.25012C13.5 6.25012 14.7083 7.32512 14.7083 9.63345V13.9501Z" fill="#8549A1"/>
</svg>
